<svg xmlns="http://www.w3.org/2000/svg" enable-background="new 0 0 128 128" viewBox="0 0 128 128" id="military"><path d="M3.62 127.02c-.5 0-1.01-.13-1.48-.39-1.44-.82-1.94-2.65-1.13-4.09 5.22-9.19 14.03-16.07 24.17-18.9 1.6-.45 3.25.49 3.7 2.08.45 1.6-.49 3.25-2.08 3.7-8.62 2.4-16.12 8.27-20.56 16.08C5.68 126.47 4.67 127.02 3.62 127.02zM124.38 127.02c-1.04 0-2.06-.55-2.61-1.52-4.44-7.82-11.94-13.68-20.56-16.08-1.6-.44-2.53-2.1-2.08-3.7.44-1.6 2.1-2.53 3.7-2.08 10.14 2.83 18.95 9.71 24.17 18.9.82 1.44.31 3.27-1.13 4.09C125.39 126.89 124.88 127.02 124.38 127.02zM64 94c-14.34 0-26-11.66-26-26 0-1.66 1.34-3 3-3s3 1.34 3 3c0 11.03 8.97 20 20 20s20-8.97 20-20c0-1.66 1.34-3 3-3s3 1.34 3 3C90 82.34 78.34 94 64 94zM90 59H38c-1.66 0-3-1.34-3-3 0-15.99 13.01-29 29-29s29 13.01 29 29C93 57.66 91.66 59 90 59zM103.68 122.52c-8.1-14.25-23.3-23.1-39.68-23.1-16.38 0-31.58 8.85-39.68 23.11-.82 1.44-.31 3.27 1.13 4.09.47.27.98.39 1.48.39L69 127v-3c0-1.66 1.34-3 3-3h10c1.66 0 3 1.34 3 3v3l16.07 0c.5 0 1.01-.13 1.48-.39C103.99 125.79 104.49 123.96 103.68 122.52z"></path><path d="M101.58 42.02c-1.51-.68-3.29 0-3.96 1.51s0 3.29 1.51 3.96c5.36 2.4 9.1 7.31 10.09 12.98H96.47c-1.66 0-3 1.34-3 3s1.34 3 3 3h6.84c2.03 2.55 3.16 5.71 3.16 9 0 7.98-6.49 14.47-14.47 14.47-.89 0-1.77-.08-2.63-.24-1.63-.3-3.19.78-3.49 2.41-.3 1.63.78 3.19 2.41 3.49 1.22.22 2.47.34 3.72.34 11.29 0 20.47-9.18 20.47-20.47 0-3.15-.72-6.22-2.08-9h2.08c1.66 0 3-1.34 3-3C115.47 54.22 110.01 45.8 101.58 42.02zM38.63 89.7c-.86.16-1.75.24-2.63.24-7.98 0-14.47-6.49-14.47-14.47 0-3.28 1.12-6.45 3.16-9h6.84c1.66 0 3-1.34 3-3s-1.34-3-3-3H18.79c.99-5.66 4.73-10.57 10.09-12.98 1.51-.68 2.19-2.45 1.51-3.96s-2.45-2.19-3.96-1.51c-8.44 3.78-13.89 12.21-13.89 21.45 0 1.66 1.34 3 3 3h2.1c-1.36 2.78-2.1 5.86-2.1 9 0 11.29 9.18 20.47 20.47 20.47 1.25 0 2.5-.11 3.72-.34 1.63-.3 2.71-1.86 2.41-3.49C41.83 90.48 40.27 89.4 38.63 89.7z"></path></svg>