<svg xmlns="http://www.w3.org/2000/svg" width="48" height="48" id="delivery">
  <g transform="translate(0 -1004.362)">
    <circle cx="24" cy="1028.362" r="24" fill="#239fdb"/>
    <path style="line-height:normal;text-indent:0;text-align:start;text-decoration-line:none;text-decoration-style:solid;text-decoration-color:#000;text-transform:none;block-progression:tb;isolation:auto;mix-blend-mode:normal" fill="#0b5ecd" fill-rule="evenodd" d="M23.986 7.99a.546.546 0 0 0-.205.041l-15.445 6.42a.546.546 0 0 0-.336.502v4.457a.546.546 0 0 0 .543.543l2.498 2.498v17.014a.546.546 0 0 0 .545.545l7.467 7.465A24 24 0 0 0 24 48a24 24 0 0 0 24-24 24 24 0 0 0-.045-1.26l-7.998-7.998a.546.546 0 0 0-.293-.29L24.2 8.031a.546.546 0 0 0-.213-.042z" color="#000" font-family="sans-serif" font-weight="400" transform="translate(0 1004.362)"/>
    <path style="line-height:normal;text-indent:0;text-align:start;text-decoration-line:none;text-decoration-style:solid;text-decoration-color:#000;text-transform:none;block-progression:tb;isolation:auto;mix-blend-mode:normal" fill="#fff" fill-rule="evenodd" d="M23.986 1012.353a.546.546 0 0 0-.205.041l-15.445 6.418a.546.546 0 0 0-.336.504v4.455a.546.546 0 0 0 .545.545h2.496v19.51a.546.546 0 0 0 .545.545h24.828a.546.546 0 0 0 .545-.545v-19.51h2.496a.546.546 0 0 0 .545-.545v-4.455a.546.546 0 0 0-.336-.504l-15.465-6.418a.546.546 0 0 0-.213-.04zm.004 1.135 14.918 6.192v3.547h-2.494a.546.546 0 0 0-.545.544v19.51h-1.912v-15.422a.5.5 0 0 0-.5-.5H14.543a.5.5 0 0 0-.5.5v15.422h-1.912v-19.51a.546.546 0 0 0-.545-.544H9.092v-3.547l14.898-6.192zm-9.49 9.828a.5.5 0 0 0-.5.5v2a.5.5 0 0 0 .5.5h5a.5.5 0 0 0 .5-.5v-2a.5.5 0 0 0-.5-.5h-5zm7 0a.5.5 0 0 0-.5.5v2a.5.5 0 0 0 .5.5h5a.5.5 0 0 0 .5-.5v-2a.5.5 0 0 0-.5-.5h-5zm7 0a.5.5 0 0 0-.5.5v2a.5.5 0 0 0 .5.5h5a.5.5 0 0 0 .5-.5v-2a.5.5 0 0 0-.5-.5h-5zm-13.5 1h4v1h-4v-1zm7 0h4v1h-4v-1zm7 0h4v1h-4v-1zm-13.957 4.043h17.914v14.914H30v-4.457a.5.5 0 0 0-.5-.5h-5a.5.5 0 0 0-.5.5v4.457h-1v-9.457a.5.5 0 0 0-.5-.5h-5a.5.5 0 0 0-.5.5v9.457h-1.957v-14.914zm2.957 5.957h4v4h-4v-4zm0 5h4v3.957h-4v-3.957zm7 0h4v3.957h-4v-3.957z" color="#000" font-family="sans-serif" font-weight="400" overflow="visible"/>
  </g>
</svg>