<svg xmlns="http://www.w3.org/2000/svg" enable-background="new 0 0 1000 1000" viewBox="0 0 1000 1000" id="warehouse"><g transform="matrix(.1 0 0 -.1 0 511)"><path d="M4732.5,4840.5c-440.7-182.4-4487-2021.1-4525.9-2055.9C106.1,2690.3,100,2649.3,100,1995.4c0-573.9,2.1-612.9,43-694.9c59.4-125,151.7-176.3,338.2-188.6l151.7-10.2v-2767.2c0-2752.9,0-2767.2,43-2834.8c22.5-36.9,71.7-86.1,108.6-108.7c67.7-43,69.7-43,4214.4-43s4146.7,0,4214.3,43c36.9,22.6,86.1,71.7,108.7,108.7c43,67.6,43,82,43,2834.8v2767.2l149.6,10.2c170.1,12.3,258.3,49.2,325.9,143.5c47.1,67.6,47.1,73.8,53.3,719.5l6.1,653.9l-51.2,88.1c-30.8,51.2-79.9,100.4-123,120.9C9406,2989.5,4951.8,4865.1,4896.5,4871.2C4855.5,4875.3,4785.8,4863.1,4732.5,4840.5z M7225,3522.5l2324.5-988v-528.8v-526.8l-260.3-6.2l-262.4-6.1l-6.1-2884l-4.1-2886.1h-348.5h-348.5v2357.3V410.9H4999H1678.3v-2357.2v-2357.3h-348.5H981.4l-4.1,2886.1l-6.1,2884l-260.3,6.1l-262.4,6.2v520.6c0,391.5,6.1,524.7,24.6,537.1c65.6,41,4355.8,1969.8,4388.6,1971.9C4884.2,4510.5,5946,4065.7,7225,3522.5z M7971.2-2120.5v-2183h-215.2h-215.2v522.7v522.7h-789.2h-789.2v522.7v522.7h-789.2H4384v532.9v532.9l-957.3-4.1l-959.3-6.1l-6.1-1572.2l-4.1-1574.2H2242h-215.2v2183v2183H4999h2972.2V-2120.5z M4035.6-1854.1v-338.2h-614.9h-614.9v338.2v338.2h614.9h614.9V-1854.1z M4035.6-2909.7v-348.5l-608.8,4.1l-610.8,6.2l-6.1,344.4l-4.1,342.3h614.9h614.9V-2909.7z M5613.9-2909.7v-348.5H4999H4384v348.5v348.5H4999h614.9V-2909.7z M4035.6-3955.1v-348.5h-614.9h-614.9v348.5v348.5h614.9h614.9V-3955.1z M5613.9-3955.1v-348.5H4999H4384v348.5v348.5H4999h614.9V-3955.1z M7192.2-3955.1v-348.5h-614.9h-614.9v348.5v348.5h614.9h614.9V-3955.1z"></path><path d="M1596.3 1292.3v-184.5l651.8 4.1 649.8 6.1v174.2 174.2l-649.8 6.1-651.8 4.1V1292.3zM3428.8 1450.2c-6.1-16.4-8.2-96.3-4.1-180.4l6.1-151.7 651.8-6.1 649.8-4.1v184.5 184.5h-645.7C3564.1 1476.8 3437 1470.7 3428.8 1450.2zM5265.4 1292.3v-184.5h655.9 655.9v184.5 184.5h-655.9-655.9V1292.3zM7110.3 1292.3v-184.5l651.8 4.1 649.8 6.1v174.2 174.2l-649.8 6.1-651.8 4.1V1292.3z"></path></g></svg>